<?xml version="1.0" encoding="utf-8"?>
<!-- Generator: Adobe Illustrator 19.0.0, SVG Export Plug-In . SVG Version: 6.00 Build 0)  -->
<svg version="1.1" id="Layer_1" xmlns="http://www.w3.org/2000/svg" xmlns:xlink="http://www.w3.org/1999/xlink" x="0px" y="0px"
	 viewBox="88 9.6 966 520" style="enable-background:new 88 9.6 966 520;" xml:space="preserve">
<style type="text/css">
	.st0{opacity:0.5;}
	.st1{fill:#39587F;}
	.st2{opacity:0.1;clip-path:url(#SVGID_2_);filter:url(#goo);}
</style>
<filter  id="goo">
	<feGaussianBlur  stdDeviation="11" in="SourceGraphic" result="blur"></feGaussianBlur>
	<feColorMatrix  values="1 0 0 0 0  0 1 0 0 0  0 0 1 0 0  0 0 0 21 -9" mode="matrix" in="blur"></feColorMatrix>
	<feBlend  mode="normal"></feBlend>
</filter>
<g class="st0">
	<path id="worldMapSimple" class="st1" d="M530.7,151.9l0.2-4.4h1.6l2.2-2.3h3.4v1.8l-3.5,3.3v1.8h3.5v3.2l-2.7,2.5l0.8,1l7.7,8v4
		h3.5v2.5l-2.3,2v3.5h-11.4l-2.5,2.3h-1.8l6.4-6.9h-3.4v-5.8h1.7l2.5-2.4l-2.3-2.2h-3.1v-6.4l-3-2.9L530.7,151.9z M519.2,173.7h2.4
		l-2.4-3.2v-4.9h1.9l2.8-2.3h4.5v8.8l-4.5,5.1h-4.7V173.7z M456.4,356.7L444.8,368v18.6l-6.4,6.6h-7.1L420.5,404v7.1l-8.1,8.1v6.9
		l-4.9,5.2h-12.2l8.9,8.7l-5.4,5.2h-9.5v9.3h-7v8.8l-4.6,4.4v4.2h4.6v3.6l-8.1,8.8v5.9l7.1,7.2h-13.2l-7.8-7.1V469l4.6-4.7v-9.7
		h-1.2v5.8h-3.5v-5.6l3.5-3.7v-20.6l4.6-3.6v-47.5l-8.1-7.3v-11.4L343,343.1v-13.5l11.6-11.8v-12.6h-13.9l-4-3.5h-4.1v-5.5l-3.6-3.8
		h-6.1l-9.5-9.3h-14.6L287.4,272v-6.5L277,255.2v-4.6l-11.1-10.2h-2.2l6.4,5.6v4.9l1.7,1.7l6.3,6.3h-3.9l-6.6-5.8h-4.4v-7.7
		l-4.6-5.1v-9.1h-4.3l-7.3-7.5v-5.7l-4.6-4.3v-31.2h2.4l2.2,2.6v-4.5l-7.6-7.4H233v-4.4l-11.8-11.8H218v-11.6h-5.5l-6.5-6.9h-15.2
		l-3.4-3.5h-4.1v3.5h3.5v1.1h-6.8l-4.6,4.9l-1.4-1.3v-3.8l3.5-3.8v-2.8l-3.5,3.3l-4.6,4.3v4.1l-10.1,10.1h-4.9l-6.5,7h-4.7l9-9.3h5
		l6.8-6.9H155l-3,3.3v-8h-7v-5.8h-4.6v-2.2l4.8-4.7h6.8v-5.8h-11.6v-5.4l3.1-2.7h2.4l4.9,4.2v-4.7l-9.3-9.1v-3.1h4.4l7.5-8.1H168
		l3.9,4.6h27.9l9.7,9.3h4.9v-5l4.1-4.3h11l2.7,2.3h3.7l-3.7-3.5h4.1l6,5.8h21.9v7h8.1v-3.1l7,6.6v-9.3h6.4l3.7,3.5h14.9l7.3-7.1
		l-2.9-2.8l5.6-5.5l5.4,5.4l-3,2.9l5.8,5.7l3.5-3.5l2.1,2.1l-2.6,2.6l4.7,4.5v5.4l-12.4,12.2l-5,4.9v10.4h4.6v4.6h6.7l10.1,9.3h8.7
		v6.5l6,5.9l4.1-4l-4.3-4.2v-4l6.4-6.3l-6.4-6.3l4.9-4.9l-3.8-3.6v-6.9h13.5l4.7,4.6h4.9v5.7l5,5.2l7.8-8v5.2l5.8,5.4v6.2H402v5.9
		l2.3,2.9v5.2h-5.9l-3.5,3.5h-15.8l-10.8,10.8v3.3l10.3-9.4h7v6.6l2.3,2.9v4.3h-9.3v3.5h-5.6l-3.7,3.7v5l-3.9,4l-3.5,3.6l-1.9,2.1
		v5.9H358v-5.2l-2.3,2.6v2.9l2.3,2.3v4.2l-11.6,11.1v5.5l2.3,5.5v6.8h-4.2l-5-4.6v-4.3l-4.2-5h-11.1l3.5,3.5h-7l-3.9-3.5h-5.9
		l-6.1,7.8V269l7.5,7.4h8.8l7-7h4.5v12.7h7v15.3l4.9,4.4h10.2v1.1l5-5.8h4l2.5-3.2v7.9h3.5V296h3.8l3.7,3.5h10.5l6.8,6.5l5.4,5.1
		h14.1l4.3,4.3v10.4l4.8,5h8v8.1h10.6l6.3,5.8h8.5L456.4,356.7z M354.8,271.6l-1.3-1.3h2.3l-3.8-3.8h-3l-2.3-2.3h-9.3l3-3.7h5.5
		l2,2.1h5.2l6.3,6.3h4.1v2.8H354.8z M356.9,276.1h-3.1l-1.9-2h3L356.9,276.1z M366.8,274.2l-2.3-2.3h8.5l1.2,1.2h1.8l2.1,2.1H364
		l-1.2-1.1H366.8z M466.6,112.5l-8.2,8.1h-6.9l-4.6,4.8v5.9l-3.5,3.8v12.1h-7l-5-4.7h-4l-8.1-8.3l5.4-5.6l-4.4-4.6h-4.5v-9l7.6-7.3
		l-8.8-9v2.1h-3.5V88l-10.3-9.1h-13.3l-4,3.7l-13.8-13.9l3.7-3.7h13.7l3.3-3.1l-2.9-2.7h-5.6l7.7-8.1h7l3.5-3.5h17.2l5.4,5.2v-7.5
		h8.3l2.1-1.2h11.6l4.4-4.6h22.2v4.6h12.9l6.1,5.8h-17.3l-1.3,1.2h13.5v6.4l7.2-7.6h10l3.9-3.5h6.2l4.7,4.9l-2.9,3.1H508l-11.3,10.9
		v6.4h3.5v4.6h-8.1v9l-5.4,5.7l-3.1-3.1h-3.1v4.6h9.3v6.5l-13.2,13.2L466.6,112.5z M486.3,127.9v-7.3h5l2.5,2.3l3.3-3.4h6.6l4.6,4.9
		l-8.8,9h-8.7L486.3,127.9z M671.2,376l-6.9,7.3v13.5l-7.1,7.2l-6.8-6.9V388l3.5-4v-9.4l6-5.9l7-7.1l4.3,4.3L671.2,376z
		 M803.8,348.4l-3.1-3.3l3.2-3.4l3.3,2h13.1l3.9,3.5h17.3l-3.2,3.5h-17.9l-2.9-2.3L803.8,348.4z M833,309.3l-2.2,2.1h-4.5v5.6
		l4.1,3.9l-1.8,1.9v7.8l-7.7,7.5h-6.4l-4.5-4v-5.8l-3.5-3V319l5.7-0.4l14.3-15.5L833,309.3z M831,260.4v-5.6l4.6-4.3l4.7,3.2
		l-3.5,3.5v3.3L831,260.4z M846.7,346h2.8v3.6l-5.7,5.6h-2.4V352L846.7,346z M909.7,451.7l-6.7,6.6h-4.7l-3.7-7.6v-5.2h3.6l0.1,3.5
		h8l3.3-3.3L909.7,451.7z M917.8,417.9l-10.4,10v7.5l-6.9,7.1l-2.6-2.8h-13.7V433l-4.6-4.8v-6.4l-3.3,3.5l-7.8-7.5h-6.7l-3.1,2.3
		h-10.9l-12.4,12.7h-12.4v-5.5l5.8-5.5v-10l-10.2-9.2h3.2v-11.4l9.9-10.6h5.5l15.1-15.3l3.9,3.5l7.7-7.9h14.6v7.8l6.4,6.6l5.2-5.5
		v-13.2l4.6,4.8v5.6l4.6,4.6v7.9l12.8,11.6v4.4l5.8,6.4L917.8,417.9z M908.8,353H901l-6.4-7h-5.7v4.6h-6.9v-3.5h-8.4l3.6-3.2
		l-7.6-7.2h-6.8l4-3.9v-3H861v-3.5h10.4v5.6l4.8-4.5l3.7,3.6h5.4l9.8,9.3h4v3.4L908.8,353z M906.1,332.3l2.7-2.7l4.4,4.4v5l-4.4,4.7
		h-6.1v-3.3l3.9-0.7l3.4-3.6L906.1,332.3z M888.7,201.4l-4.7-4.6l-3.2,3.2l6.9,5.6v5h-2.3v6.8l-4.1,4.8h-6.3v3.5h-4.7l-3.3-3.3
		l-7.1,7.1v-5.3l5.5-5.4h7l8.4-8.9v-14.1l3.5-3.3v-7.9l4,6.4h4.1l3.5,3.4L888.7,201.4z M959,456h-3v4.2l-5.8,6L944,460l7.6-7.5h3.2
		v-3.5h4.6v-5.3l5.8,5.9L959,456z M973.3,441h-3.5v4.8l-1.2,2.1h-3.4v-4.6l-4.2-2.6l1.9-2.6v-7.8l-4-4l1.8-1.8l5.6,5.8v3.1l3.2,3.1
		l1.8-1.4h1.9L973.3,441z M989.7,122.7h-6.3l-7.4-7.4v6.2h-13.1l7.4,8.1H961l-9.6,9.3H939l-8.2,7.9v7.9l-2.3,2.4v5.9L918,173.6h-4.6
		v-18.5l7.5-7.5l9.9-9.9v-7H925l-9.6,9.7l-4.1,4.2H903v-3.9l-5.7,5h-13.9l-17.9,17.4h8.6l2.9-2.9l2.8,3.3v18.2l-16.8,17.2h-7.2
		l-10.8,10.1v7.3h7v9.6l-5.6,5.9L844,229v-9.1h-3.5v-5.8h-3.3l-3.6,3.8v-9.7l-5.7,5.9h-8.4l5.1,4.6h5.1l3.2,3.2l-3.9,4l6.9,6.7v13.5
		l-16.7,16.7H811l-6.4,5.8v7.1l-5.3-5.2l-6.5,6.5l8.4,8.5v12.4l-7.2,7.1l-11.4-11.3v11.3l9.3,8.7v5.2l2,2v3.5l2.6,2.6v2.7l4.3,4.6
		v4.1l-3.4,3.4l-8.2-8.1v-6l-10.8-10.8l0.1-6.5h2.6l-3.2-3.4v-16.4l-5.6-5.4l-3.7,3.6v-10.9L757,266l-9.1,9v7.1l-8.1,7.9v10.1
		L728.4,311l-7.2-6.7v-12.5l-4.6-4.8v-19l-3.9,3.9l-10.1-10.3h-13.1l-7.2-6.9h-10l-9.2-9.3h-4.4v9.3h5.8v8.1h6.9l4.7-4.3l4,4.3h6.5
		v9.7l-12.8,12.3h-6.7l-9.8,10.4h-7.8v-14l-6.8-6.9h-4.8v-8.4l-7-7.6v-9.5h-2.3v16.4l4.6,4.3v8l3.5,3.5v4.9l11.6,11.8v3.2h3l3.9-3.5
		H668v8.1l-8.1,7.7v7.1l-22,21.5v17.6l3.5,3.3v16.4l-3.4,4h-5.8l-6.9,6.9l4.5,4v11.1h-7v3.9l2.6,2.7l-19.2,18.8h-6.3l-3.2,3.5h-8.5
		V429l2.3-2.8l-4.7-4.2v-8.6l-3.5-4.1v-14.6l-11.6-10.7v-11.4l3.5-3.1v-23.9l-11.5-11.3l5.7-5.7v-7.9h-13.9v-6.9h-7.4l-6.9,6.9
		h-18.6l-7.6-8v-6.4l-14.7-14l5.4-5.9v-13.5l-2.3-2.8v-7.3l11.5-11.6h4.7v-13.7l9.3-8.2h10.9l5.6-5.8h24.2l3.4,3.2l-3.6,3.6v4.8h8.2
		l6.1,5.8h4.1l3.6,3.6V235h3.8l6,5.8h14.7l2.6-2.3h5.3l9.3-8.6v-6.5H620l-3.4,3.3l-8.8-8.7v-3.8h7.1l7-6.9h8.4l1.9,2.3h8.4l4.1-4.2
		l-4.9-3.7l-4.9-4.8h-5.5l-3.2,3.2l-3.3-3.4v-4.4h-4.6v3.8l-5.8,6.6v7h-9.6l-5.5,4.4v9.5l-3.4-3.7v-4.5h-3.5v-6.4l-3.5-3.3v-5.3h-7
		l-3.3-3.1l-3.6-3.3v4.8l10.2,10.5l4.8,3.1v2h-3.5v3.8l-3.5,3.9v-7.8l-7.6-6.9h-2.8v-4l-4.9-4.1h-5.3l-3.7,3.5l-2.2-2.4h-5.9v5.7
		l-6.9,7.1v5.8l-4,3.3h-6.7L528,226v-2.6h-4.3l-5-5v-4.2l4.6-4.4v-4.9h-4.3l4.4-4.6h8l2.8,2.3h4.6l3-2v-7.8l-4.9-4.1h-3.2v-3.5h4.1
		l3.1-2.4h3.7l5.9-6.2l2.8-3.2v-6.8h10.3l2.4-1.4V154l3.5-3.6v5.9h2.8l6.1,5.8h5l3.2-2.7l3.7,3.6v-3.2h3.6v-9.3h7v-6.9h7.9l4.4-4.6
		h-11.9l-3.9,4.6v-4.6H594v-7.3l9-8.8l2.6-2.4h-9.3l-2.2,2l-7.1,6.8v7.9l3.2,3.2l-2.4,2.4l-4.3,4.2v3.6l-4.6,4.6l-3.9-3.9l-5.8-5.8
		l-4.2,4h-9.2v-5.7l4.8-4.9l-3.6-3.5l6.6-6.7h4.9v-5.8h5.8v-6.8l13.1-12.9h5.6l5.1-5.8h13.1l3,3.5h5.4l3.4,3.5h11.1l7.5,7.2
		l-5.9,5.6h-4.4l-4.8-4.7l-3.6,3.6h4.7v6.7l3.7,3.8l5.4-5.7l7-7.1h7.1V108l5.4,5l8.9-8.9h23.7l-5-4.6h13l8.4,8.2V95.6l5-5.3h7.7
		v19.6l-6,5.9h3.5l4.8-4.4V93.2L726,88v7.6l3.5,4.4v-6.3l-3-3.2l4-3.7h4.1l4.2,4.3v7.2l3.5-3.3V84.5l6.6-6.9h8.9l7-7h9.8l4.5,4.8
		l3.3-2.9l6.9-6.5h7.3v7h17.4v5.6l-15.3,15.2l4.4,1.8l11.2-11.1h13l4.2,4.6h4.3v-6.9h8.3l7.7,7.8l-3.5,3.6l7.2,7l6.8-6.9h14v-6.9
		h10.8l5.6,5.7l3.5-3.3h4.4v9.3h20.1l5.8,5.6l3-3.2h12.2l5.6,5.8h6.5v-6.9H967l5.4,5.8h10.5v6.4l3.5,3.9v-4.5h6.8l4.4,4.1
		L989.7,122.7z"/>
</g>
<g class="st0">
	<defs>
		<path id="SVGID_1_" class="st0" d="M530.7,151.9l0.2-4.4h1.6l2.2-2.3h3.4v1.8l-3.5,3.3v1.8h3.5v3.2l-2.7,2.5l0.8,1l7.7,8v4h3.5
			v2.5l-2.3,2v3.5h-11.4l-2.5,2.3h-1.8l6.4-6.9h-3.4v-5.8h1.7l2.5-2.4l-2.3-2.2h-3.1v-6.4l-3-2.9L530.7,151.9z M519.2,173.7h2.4
			l-2.4-3.2v-4.9h1.9l2.8-2.3h4.5v8.8l-4.5,5.1h-4.7V173.7z M456.4,356.7L444.8,368v18.6l-6.4,6.6h-7.1L420.5,404v7.1l-8.1,8.1v6.9
			l-4.9,5.2h-12.2l8.9,8.7l-5.4,5.2h-9.5v9.3h-7v8.8l-4.6,4.4v4.2h4.6v3.6l-8.1,8.8v5.9l7.1,7.2h-13.2l-7.8-7.1V469l4.6-4.7v-9.7
			h-1.2v5.8h-3.5v-5.6l3.5-3.7v-20.6l4.6-3.6v-47.5l-8.1-7.3v-11.4L343,343.1v-13.5l11.6-11.8v-12.6h-13.9l-4-3.5h-4.1v-5.5
			l-3.6-3.8h-6.1l-9.5-9.3h-14.6L287.4,272v-6.5L277,255.2v-4.6l-11.1-10.2h-2.2l6.4,5.6v4.9l1.7,1.7l6.3,6.3h-3.9l-6.6-5.8h-4.4
			v-7.7l-4.6-5.1v-9.1h-4.3l-7.3-7.5v-5.7l-4.6-4.3v-31.2h2.4l2.2,2.6v-4.5l-7.6-7.4H233v-4.4l-11.8-11.8H218v-11.6h-5.5l-6.5-6.9
			h-15.2l-3.4-3.5h-4.1v3.5h3.5v1.1h-6.8l-4.6,4.9l-1.4-1.3v-3.8l3.5-3.8v-2.8l-3.5,3.3l-4.6,4.3v4.1l-10.1,10.1h-4.9l-6.5,7h-4.7
			l9-9.3h5l6.8-6.9H155l-3,3.3v-8h-7v-5.8h-4.6v-2.2l4.8-4.7h6.8v-5.8h-11.6v-5.4l3.1-2.7h2.4l4.9,4.2v-4.7l-9.3-9.1v-3.1h4.4
			l7.5-8.1H168l3.9,4.6h27.9l9.7,9.3h4.9v-5l4.1-4.3h11l2.7,2.3h3.7l-3.7-3.5h4.1l6,5.8h21.9v7h8.1v-3.1l7,6.6v-9.3h6.4l3.7,3.5
			h14.9l7.3-7.1l-2.9-2.8l5.6-5.5l5.4,5.4l-3,2.9l5.8,5.7l3.5-3.5l2.1,2.1l-2.6,2.6l4.7,4.5v5.4l-12.4,12.2l-5,4.9v10.4h4.6v4.6h6.7
			l10.1,9.3h8.7v6.5l6,5.9l4.1-4l-4.3-4.2v-4l6.4-6.3l-6.4-6.3l4.9-4.9l-3.8-3.6v-6.9h13.5l4.7,4.6h4.9v5.7l5,5.2l7.8-8v5.2l5.8,5.4
			v6.2H402v5.9l2.3,2.9v5.2h-5.9l-3.5,3.5h-15.8l-10.8,10.8v3.3l10.3-9.4h7v6.6l2.3,2.9v4.3h-9.3v3.5h-5.6l-3.7,3.7v5l-3.9,4
			l-3.5,3.6l-1.9,2.1v5.9H358v-5.2l-2.3,2.6v2.9l2.3,2.3v4.2l-11.6,11.1v5.5l2.3,5.5v6.8h-4.2l-5-4.6v-4.3l-4.2-5h-11.1l3.5,3.5h-7
			l-3.9-3.5h-5.9l-6.1,7.8V269l7.5,7.4h8.8l7-7h4.5v12.7h7v15.3l4.9,4.4h10.2v1.1l5-5.8h4l2.5-3.2v7.9h3.5V296h3.8l3.7,3.5h10.5
			l6.8,6.5l5.4,5.1h14.1l4.3,4.3v10.4l4.8,5h8v8.1h10.6l6.3,5.8h8.5L456.4,356.7z M354.8,271.6l-1.3-1.3h2.3l-3.8-3.8h-3l-2.3-2.3
			h-9.3l3-3.7h5.5l2,2.1h5.2l6.3,6.3h4.1v2.8H354.8z M356.9,276.1h-3.1l-1.9-2h3L356.9,276.1z M366.8,274.2l-2.3-2.3h8.5l1.2,1.2
			h1.8l2.1,2.1H364l-1.2-1.1H366.8z M466.6,112.5l-8.2,8.1h-6.9l-4.6,4.8v5.9l-3.5,3.8v12.1h-7l-5-4.7h-4l-8.1-8.3l5.4-5.6l-4.4-4.6
			h-4.5v-9l7.6-7.3l-8.8-9v2.1h-3.5V88l-10.3-9.1h-13.3l-4,3.7l-13.8-13.9l3.7-3.7h13.7l3.3-3.1l-2.9-2.7h-5.6l7.7-8.1h7l3.5-3.5
			h17.2l5.4,5.2v-7.5h8.3l2.1-1.2h11.6l4.4-4.6h22.2v4.6h12.9l6.1,5.8h-17.3l-1.3,1.2h13.5v6.4l7.2-7.6h10l3.9-3.5h6.2l4.7,4.9
			l-2.9,3.1H508l-11.3,10.9v6.4h3.5v4.6h-8.1v9l-5.4,5.7l-3.1-3.1h-3.1v4.6h9.3v6.5l-13.2,13.2L466.6,112.5z M486.3,127.9v-7.3h5
			l2.5,2.3l3.3-3.4h6.6l4.6,4.9l-8.8,9h-8.7L486.3,127.9z M671.2,376l-6.9,7.3v13.5l-7.1,7.2l-6.8-6.9V388l3.5-4v-9.4l6-5.9l7-7.1
			l4.3,4.3L671.2,376z M803.8,348.4l-3.1-3.3l3.2-3.4l3.3,2h13.1l3.9,3.5h17.3l-3.2,3.5h-17.9l-2.9-2.3L803.8,348.4z M833,309.3
			l-2.2,2.1h-4.5v5.6l4.1,3.9l-1.8,1.9v7.8l-7.7,7.5h-6.4l-4.5-4v-5.8l-3.5-3V319l5.7-0.4l14.3-15.5L833,309.3z M831,260.4v-5.6
			l4.6-4.3l4.7,3.2l-3.5,3.5v3.3L831,260.4z M846.7,346h2.8v3.6l-5.7,5.6h-2.4V352L846.7,346z M909.7,451.7l-6.7,6.6h-4.7l-3.7-7.6
			v-5.2h3.6l0.1,3.5h8l3.3-3.3L909.7,451.7z M917.8,417.9l-10.4,10v7.5l-6.9,7.1l-2.6-2.8h-13.7V433l-4.6-4.8v-6.4l-3.3,3.5
			l-7.8-7.5h-6.7l-3.1,2.3h-10.9l-12.4,12.7h-12.4v-5.5l5.8-5.5v-10l-10.2-9.2h3.2v-11.4l9.9-10.6h5.5l15.1-15.3l3.9,3.5l7.7-7.9
			h14.6v7.8l6.4,6.6l5.2-5.5v-13.2l4.6,4.8v5.6l4.6,4.6v7.9l12.8,11.6v4.4l5.8,6.4L917.8,417.9z M908.8,353H901l-6.4-7h-5.7v4.6
			h-6.9v-3.5h-8.4l3.6-3.2l-7.6-7.2h-6.8l4-3.9v-3H861v-3.5h10.4v5.6l4.8-4.5l3.7,3.6h5.4l9.8,9.3h4v3.4L908.8,353z M906.1,332.3
			l2.7-2.7l4.4,4.4v5l-4.4,4.7h-6.1v-3.3l3.9-0.7l3.4-3.6L906.1,332.3z M888.7,201.4l-4.7-4.6l-3.2,3.2l6.9,5.6v5h-2.3v6.8l-4.1,4.8
			h-6.3v3.5h-4.7l-3.3-3.3l-7.1,7.1v-5.3l5.5-5.4h7l8.4-8.9v-14.1l3.5-3.3v-7.9l4,6.4h4.1l3.5,3.4L888.7,201.4z M959,456h-3v4.2
			l-5.8,6L944,460l7.6-7.5h3.2v-3.5h4.6v-5.3l5.8,5.9L959,456z M973.3,441h-3.5v4.8l-1.2,2.1h-3.4v-4.6l-4.2-2.6l1.9-2.6v-7.8l-4-4
			l1.8-1.8l5.6,5.8v3.1l3.2,3.1l1.8-1.4h1.9L973.3,441z M989.7,122.7h-6.3l-7.4-7.4v6.2h-13.1l7.4,8.1H961l-9.6,9.3H939l-8.2,7.9
			v7.9l-2.3,2.4v5.9L918,173.6h-4.6v-18.5l7.5-7.5l9.9-9.9v-7H925l-9.6,9.7l-4.1,4.2H903v-3.9l-5.7,5h-13.9l-17.9,17.4h8.6l2.9-2.9
			l2.8,3.3v18.2l-16.8,17.2h-7.2l-10.8,10.1v7.3h7v9.6l-5.6,5.9L844,229v-9.1h-3.5v-5.8h-3.3l-3.6,3.8v-9.7l-5.7,5.9h-8.4l5.1,4.6
			h5.1l3.2,3.2l-3.9,4l6.9,6.7v13.5l-16.7,16.7H811l-6.4,5.8v7.1l-5.3-5.2l-6.5,6.5l8.4,8.5v12.4l-7.2,7.1l-11.4-11.3v11.3l9.3,8.7
			v5.2l2,2v3.5l2.6,2.6v2.7l4.3,4.6v4.1l-3.4,3.4l-8.2-8.1v-6l-10.8-10.8l0.1-6.5h2.6l-3.2-3.4v-16.4l-5.6-5.4l-3.7,3.6v-10.9
			L757,266l-9.1,9v7.1l-8.1,7.9v10.1L728.4,311l-7.2-6.7v-12.5l-4.6-4.8v-19l-3.9,3.9l-10.1-10.3h-13.1l-7.2-6.9h-10l-9.2-9.3h-4.4
			v9.3h5.8v8.1h6.9l4.7-4.3l4,4.3h6.5v9.7l-12.8,12.3h-6.7l-9.8,10.4h-7.8v-14l-6.8-6.9h-4.8v-8.4l-7-7.6v-9.5h-2.3v16.4l4.6,4.3v8
			l3.5,3.5v4.9l11.6,11.8v3.2h3l3.9-3.5H668v8.1l-8.1,7.7v7.1l-22,21.5v17.6l3.5,3.3v16.4l-3.4,4h-5.8l-6.9,6.9l4.5,4v11.1h-7v3.9
			l2.6,2.7l-19.2,18.8h-6.3l-3.2,3.5h-8.5V429l2.3-2.8l-4.7-4.2v-8.6l-3.5-4.1v-14.6l-11.6-10.7v-11.4l3.5-3.1v-23.9l-11.5-11.3
			l5.7-5.7v-7.9h-13.9v-6.9h-7.4l-6.9,6.9h-18.6l-7.6-8v-6.4l-14.7-14l5.4-5.9v-13.5l-2.3-2.8v-7.3l11.5-11.6h4.7v-13.7l9.3-8.2
			h10.9l5.6-5.8h24.2l3.4,3.2l-3.6,3.6v4.8h8.2l6.1,5.8h4.1l3.6,3.6V235h3.8l6,5.8h14.7l2.6-2.3h5.3l9.3-8.6v-6.5H620l-3.4,3.3
			l-8.8-8.7v-3.8h7.1l7-6.9h8.4l1.9,2.3h8.4l4.1-4.2l-4.9-3.7l-4.9-4.8h-5.5l-3.2,3.2l-3.3-3.4v-4.4h-4.6v3.8l-5.8,6.6v7h-9.6
			l-5.5,4.4v9.5l-3.4-3.7v-4.5h-3.5v-6.4l-3.5-3.3v-5.3h-7l-3.3-3.1l-3.6-3.3v4.8l10.2,10.5l4.8,3.1v2h-3.5v3.8l-3.5,3.9v-7.8
			l-7.6-6.9h-2.8v-4l-4.9-4.1h-5.3l-3.7,3.5l-2.2-2.4h-5.9v5.7l-6.9,7.1v5.8l-4,3.3h-6.7L528,226v-2.6h-4.3l-5-5v-4.2l4.6-4.4v-4.9
			h-4.3l4.4-4.6h8l2.8,2.3h4.6l3-2v-7.8l-4.9-4.1h-3.2v-3.5h4.1l3.1-2.4h3.7l5.9-6.2l2.8-3.2v-6.8h10.3l2.4-1.4V154l3.5-3.6v5.9h2.8
			l6.1,5.8h5l3.2-2.7l3.7,3.6v-3.2h3.6v-9.3h7v-6.9h7.9l4.4-4.6h-11.9l-3.9,4.6v-4.6H594v-7.3l9-8.8l2.6-2.4h-9.3l-2.2,2l-7.1,6.8
			v7.9l3.2,3.2l-2.4,2.4l-4.3,4.2v3.6l-4.6,4.6l-3.9-3.9l-5.8-5.8l-4.2,4h-9.2v-5.7l4.8-4.9l-3.6-3.5l6.6-6.7h4.9v-5.8h5.8v-6.8
			l13.1-12.9h5.6l5.1-5.8h13.1l3,3.5h5.4l3.4,3.5h11.1l7.5,7.2l-5.9,5.6h-4.4l-4.8-4.7l-3.6,3.6h4.7v6.7l3.7,3.8l5.4-5.7l7-7.1h7.1
			V108l5.4,5l8.9-8.9h23.7l-5-4.6h13l8.4,8.2V95.6l5-5.3h7.7v19.6l-6,5.9h3.5l4.8-4.4V93.2L726,88v7.6l3.5,4.4v-6.3l-3-3.2l4-3.7
			h4.1l4.2,4.3v7.2l3.5-3.3V84.5l6.6-6.9h8.9l7-7h9.8l4.5,4.8l3.3-2.9l6.9-6.5h7.3v7h17.4v5.6l-15.3,15.2l4.4,1.8l11.2-11.1h13
			l4.2,4.6h4.3v-6.9h8.3l7.7,7.8l-3.5,3.6l7.2,7l6.8-6.9h14v-6.9h10.8l5.6,5.7l3.5-3.3h4.4v9.3h20.1l5.8,5.6l3-3.2h12.2l5.6,5.8h6.5
			v-6.9H967l5.4,5.8h10.5v6.4l3.5,3.9v-4.5h6.8l4.4,4.1L989.7,122.7z"/>
	</defs>
	<use xlink:href="#SVGID_1_"  style="overflow:visible;fill:#39587F;"/>
	<clipPath id="SVGID_2_">
		<use xlink:href="#SVGID_1_"  style="overflow:visible;"/>
	</clipPath>
	<g class="st2">
		<g transform="matrix(1.755,0,0,1.755,-200.8669804382331,-145.7622854232793)">
			<path id="EastCoastWave_1_" class="st1" d="M390.5,202.2c0-16-19.9-1.3-19.9-15.1c0-7.3-14.7-11.4-34-10.8
				c-8.7,0.3-23.7,4.8-20.5,16c3.9,13.6,26.8,7,26.8,15.3C342.8,239.3,390.5,228.3,390.5,202.2z"/>
		</g>
		<g transform="matrix(1.755,0,0,1.755,-357.3971803283704,-123.30625415802047)">
			<path id="EuropeWave_1_" class="st1" d="M550.9,141.9c14,8.4,5.9,23.1,18.5,25.6c12.5,2.5,37.7-1.1,38.2,16
				c0.4,14-32.6,32-66.7,16.9c-21.1-9.3-29.6-31.5-27.5-45C516.3,135.3,538.4,134.5,550.9,141.9z"/>
		</g>
		<g transform="matrix(1.755,0,0,1.755,-489.43799395752114,-213.45762614440986)">
			<path id="BangaloreWave_1_" class="st1" d="M717.3,279.2c4.6-1.1,7.7-2.1,9.9-7.6c6.9-17.8,24.2-0.2,18.4,16.4
				C733.1,323.6,690.3,285.3,717.3,279.2z"/>
		</g>
		<g transform="matrix(1.755,0,0,1.755,-530.2223990478533,-235.91633705139236)">
			<path id="SingWave_1_" class="st1" d="M814.7,305.7c16,12.1,7,33.6-6,31.4c-14.8-2.5-14.6,8.1-23.6,2.1
				C772.2,330.5,790.1,287.1,814.7,305.7z"/>
		</g>
		<g transform="matrix(2.925,0,0,2.925,-312.01368198394846,-390.8866797256478)">
			<path id="SanFranWave_1_" class="st1" d="M220.4,207.9c17.3-28.7,54.4-17.4,53.1,4.6c-1.5,25,15.9,22.7,7.6,38.7
				C269,274.2,193.9,251.9,220.4,207.9z"/>
		</g>
	</g>
</g>
</svg>
